<svg width="20" height="20" viewBox="0 0 20 20" fill="none" xmlns="http://www.w3.org/2000/svg">
<path d="M9.99445 20C7.26263 20 6.94059 19.9856 5.87452 19.939C5.04317 19.9117 4.22257 19.743 3.44808 19.44C2.78532 19.1825 2.18343 18.7901 1.68064 18.2878C1.17786 17.7856 0.785157 17.1844 0.527485 16.5225C0.235765 15.7463 0.0784207 14.9262 0.0621877 14.0974C-8.39036e-09 13.035 0 12.6868 0 9.98004C0 7.2444 0.0144364 6.92504 0.0621877 5.86605C0.0787758 5.03828 0.236115 4.21935 0.527485 3.44422C0.784861 2.78148 1.17783 2.17962 1.68128 1.67708C2.18474 1.17454 2.78762 0.782369 3.45142 0.525615C4.22726 0.233092 5.04758 0.0755647 5.87674 0.0598801C6.93726 -1.09982e-07 7.28595 0 9.99445 0C12.7485 0 13.065 0.0144155 14.1144 0.0598801C14.945 0.0754046 15.769 0.232868 16.5464 0.525615C17.21 0.782666 17.8127 1.17494 18.3161 1.67744C18.8196 2.17994 19.2126 2.78165 19.4703 3.44422C19.7668 4.23154 19.9256 5.06321 19.9378 5.90264C20 6.96496 20 7.31204 20 10.0177C20 12.7234 19.9845 13.0783 19.9378 14.1284C19.9212 14.9581 19.7635 15.7789 19.4714 16.5558C19.2131 17.2181 18.8196 17.8196 18.3161 18.3221C17.8126 18.8245 17.2099 19.2169 16.5464 19.4744C15.769 19.7649 14.9484 19.9224 14.1188 19.939C13.0583 20 12.7107 20 9.99445 20ZM9.95669 1.75538C7.24042 1.75538 6.95836 1.76868 5.89784 1.81637C5.26446 1.82464 4.6372 1.94128 4.04331 2.16123C3.61014 2.32703 3.21657 2.58163 2.88797 2.90861C2.55937 3.23559 2.30303 3.6277 2.13548 4.05966C1.91338 4.65846 1.79678 5.29164 1.79012 5.93036C1.73126 7.00488 1.73126 7.28654 1.73126 9.98004C1.73126 12.6414 1.74125 12.9641 1.79012 14.0319C1.80011 14.664 1.91671 15.2905 2.13548 15.8838C2.47529 16.7565 3.16824 17.4462 4.04442 17.7811C4.63755 18.0024 5.26469 18.1191 5.89784 18.126C6.97279 18.1881 7.25597 18.1881 9.95669 18.1881C12.6807 18.1881 12.9628 18.1748 14.0144 18.126C14.6479 18.1183 15.2752 18.0017 15.869 17.7811C16.2998 17.614 16.6912 17.3593 17.0181 17.033C17.345 16.7068 17.6004 16.3161 17.7679 15.886C17.99 15.2872 18.1066 14.6529 18.1133 14.0142H18.1255C18.1732 12.9541 18.1732 12.6713 18.1732 9.9623C18.1732 7.25327 18.161 6.96829 18.1133 5.90929C18.1032 5.27773 17.9865 4.6524 17.7679 4.05966C17.6007 3.6289 17.3456 3.23764 17.0186 2.91079C16.6917 2.58394 16.3001 2.32867 15.869 2.16123C15.2754 1.94021 14.6479 1.82353 14.0144 1.81637C12.9406 1.75538 12.6596 1.75538 9.95669 1.75538ZM9.99445 15.102C8.97898 15.1027 7.98613 14.8026 7.14146 14.2398C6.2968 13.6769 5.63826 12.8766 5.24915 11.94C4.86004 11.0034 4.75784 9.97256 4.95546 8.97794C5.15308 7.98332 5.64166 7.06957 6.35939 6.35225C7.07712 5.63493 7.99177 5.14627 8.98765 4.94807C9.98353 4.74987 11.0159 4.85104 11.9542 5.23878C12.8925 5.62652 13.6946 6.28341 14.259 7.12637C14.8233 7.96933 15.1247 8.96049 15.1249 9.97449C15.1232 11.3331 14.5822 12.6356 13.6206 13.5967C12.6589 14.5578 11.355 15.0991 9.99445 15.102ZM9.99445 6.6456C9.33554 6.6456 8.69144 6.8407 8.14358 7.20624C7.59572 7.57179 7.16871 8.09134 6.91656 8.69921C6.66441 9.30708 6.59843 9.97597 6.72698 10.6213C6.85553 11.2666 7.17282 11.8594 7.63874 12.3246C8.10465 12.7898 8.69827 13.1067 9.34451 13.235C9.99075 13.3634 10.6606 13.2975 11.2694 13.0457C11.8781 12.7939 12.3984 12.3676 12.7645 11.8205C13.1305 11.2734 13.3259 10.6302 13.3259 9.97228C13.3239 9.09062 12.9722 8.24566 12.3479 7.62223C11.7236 6.9988 10.8774 6.64765 9.99445 6.6456ZM15.3248 5.85496C15.1676 5.85437 15.0121 5.82288 14.867 5.76227C14.722 5.70165 14.5904 5.61311 14.4796 5.5017C14.256 5.27669 14.131 4.97217 14.1322 4.65513C14.1333 4.3381 14.2606 4.03451 14.4859 3.81117C14.7113 3.58782 15.0162 3.46301 15.3337 3.46418C15.6512 3.46536 15.9552 3.59243 16.1789 3.81744C16.4026 4.04245 16.5276 4.34697 16.5264 4.66401C16.5252 4.98104 16.3979 5.28463 16.1726 5.50797C15.9473 5.73132 15.6423 5.85613 15.3248 5.85496Z" fill="black"/>
</svg>
