<svg width="20" height="20" viewBox="0 0 20 20" fill="none" xmlns="http://www.w3.org/2000/svg">
<path d="M9.71429 7.66429C10.7623 6.59343 12.1269 5.89286 13.7143 5.89286C15.3814 5.89286 16.9802 6.5551 18.159 7.7339C19.3378 8.9127 20 10.5115 20 12.1786V20.75H17.7143V12.1786C17.7143 11.1177 17.2929 10.1003 16.5427 9.35015C15.7926 8.6 14.7752 8.17857 13.7143 8.17857C12.6534 8.17857 11.636 8.6 10.8859 9.35015C10.1357 10.1003 9.71429 11.1177 9.71429 12.1786V20.75H7.42857V6.46429H9.71429V7.66429ZM1.71429 4.17857C1.25963 4.17857 0.823594 3.99796 0.502103 3.67647C0.180612 3.35498 0 2.91894 0 2.46429C0 2.00963 0.180612 1.57359 0.502103 1.2521C0.823594 0.930612 1.25963 0.75 1.71429 0.75C2.16894 0.75 2.60498 0.930612 2.92647 1.2521C3.24796 1.57359 3.42857 2.00963 3.42857 2.46429C3.42857 2.91894 3.24796 3.35498 2.92647 3.67647C2.60498 3.99796 2.16894 4.17857 1.71429 4.17857ZM0.571429 6.46429H2.85714V20.75H0.571429V6.46429Z" fill="black"/>
</svg>
