<svg width="31" height="31" viewBox="0 0 31 31" fill="none" xmlns="http://www.w3.org/2000/svg">
<path d="M15.5 0.757812C12.5843 0.757812 9.73403 1.62243 7.30969 3.24232C4.88535 4.86221 2.9958 7.16463 1.88 9.85841C0.7642 12.5522 0.472256 15.5164 1.04109 18.3761C1.60992 21.2358 3.01397 23.8626 5.07571 25.9243C7.13744 27.986 9.76424 29.3901 12.6239 29.9589C15.4837 30.5278 18.4478 30.2358 21.1416 29.12C23.8354 28.0042 26.1378 26.1147 27.7577 23.6903C29.3776 21.266 30.2422 18.4157 30.2422 15.5C30.2376 11.5915 28.6829 7.84447 25.9192 5.08077C23.1555 2.31707 19.4085 0.762403 15.5 0.757812ZM15.5 28.5078C12.9273 28.5078 10.4124 27.7449 8.27325 26.3156C6.13413 24.8863 4.46689 22.8547 3.48235 20.4779C2.49782 18.101 2.24023 15.4856 2.74214 12.9623C3.24404 10.439 4.48292 8.12126 6.30209 6.30209C8.12127 4.48291 10.439 3.24404 12.9623 2.74213C15.4856 2.24022 18.101 2.49782 20.4779 3.48235C22.8547 4.46688 24.8863 6.13412 26.3156 8.27325C27.7449 10.4124 28.5078 12.9273 28.5078 15.5C28.504 18.9487 27.1323 22.2551 24.6937 24.6937C22.2551 27.1323 18.9487 28.504 15.5 28.5078ZM10.5859 15.5C10.5859 16.5314 10.9105 17.5366 11.5135 18.3733C12.1166 19.21 12.9676 19.8357 13.946 20.1619C14.9245 20.488 15.9808 20.4981 16.9652 20.1905C17.9497 19.883 18.8124 19.2735 19.4313 18.4484C19.5694 18.2644 19.7751 18.1429 20.0029 18.1105C20.2307 18.0781 20.462 18.1375 20.646 18.2757C20.83 18.4139 20.9516 18.6195 20.984 18.8473C21.0164 19.0752 20.9569 19.3065 20.8188 19.4905C19.9813 20.6065 18.814 21.4307 17.4821 21.8464C16.1503 22.2622 14.7214 22.2484 13.3978 21.807C12.0742 21.3656 10.9231 20.519 10.1073 19.387C9.2916 18.2551 8.85265 16.8952 8.85265 15.5C8.85265 14.1048 9.2916 12.7449 10.1073 11.613C10.9231 10.481 12.0742 9.63442 13.3978 9.19302C14.7214 8.75163 16.1503 8.73783 17.4821 9.15357C18.814 9.56932 19.9813 10.3935 20.8188 11.5095C20.9569 11.6935 21.0164 11.9248 20.984 12.1527C20.9516 12.3805 20.83 12.5861 20.646 12.7243C20.462 12.8625 20.2307 12.9219 20.0029 12.8895C19.7751 12.8571 19.5694 12.7356 19.4313 12.5516C18.8124 11.7265 17.9497 11.117 16.9652 10.8095C15.9808 10.5019 14.9245 10.512 13.946 10.8381C12.9676 11.1643 12.1166 11.79 11.5135 12.6267C10.9105 13.4634 10.5859 14.4686 10.5859 15.5Z" fill="black"/>
</svg>
