<svg width="16" height="33" viewBox="0 0 16 33" fill="none" xmlns="http://www.w3.org/2000/svg">
<path d="M12.1667 32.0458L0.933338 17.6958C0.800004 17.5249 0.705338 17.3399 0.649338 17.1406C0.593338 16.9413 0.565782 16.7277 0.566671 16.4999C0.566671 16.2722 0.594671 16.0586 0.650671 15.8593C0.706671 15.66 0.800893 15.4749 0.933338 15.3041L12.1667 0.911393C12.4778 0.512782 12.8667 0.313477 13.3333 0.313477C13.8 0.313477 14.2 0.527018 14.5333 0.954102C14.8667 1.38118 15.0333 1.87945 15.0333 2.44889C15.0333 3.01834 14.8667 3.5166 14.5333 3.94368L4.73334 16.4999L14.5333 29.0562C14.8444 29.4548 15 29.9462 15 30.5305C15 31.1147 14.8333 31.6198 14.5 32.0458C14.1667 32.4729 13.7778 32.6864 13.3333 32.6864C12.8889 32.6864 12.5 32.4729 12.1667 32.0458Z" fill="#585656"/>
</svg>
