<svg width="14" height="33" viewBox="0 0 14 33" fill="none" xmlns="http://www.w3.org/2000/svg">
<path d="M2.97405 32.0458L13.1543 17.6958C13.2751 17.5249 13.3609 17.3399 13.4116 17.1406C13.4624 16.9413 13.4874 16.7277 13.4866 16.4999C13.4866 16.2722 13.4612 16.0586 13.4104 15.8593C13.3597 15.66 13.2743 15.4749 13.1543 15.3041L2.97405 0.911393C2.69211 0.512782 2.33968 0.313477 1.91676 0.313477C1.49384 0.313477 1.13134 0.527018 0.829261 0.954102C0.527178 1.38118 0.376136 1.87945 0.376136 2.44889C0.376136 3.01834 0.527178 3.5166 0.829261 3.94368L9.71051 16.4999L0.829261 29.0562C0.547317 29.4548 0.406344 29.9462 0.406344 30.5305C0.406344 31.1147 0.557385 31.6198 0.859469 32.0458C1.16155 32.4729 1.51398 32.6864 1.91676 32.6864C2.31954 32.6864 2.67197 32.4729 2.97405 32.0458Z" fill="#585656"/>
</svg>
